<?xml version="1.0" encoding="UTF-8" standalone="no"?><!-- Generator: Adobe Illustrator 23.0.3, SVG Export Plug-In . SVG Version: 6.00 Build 0)  --><svg xmlns="http://www.w3.org/2000/svg" enable-background="new 0 0 409.7 500" fill="#000000" id="Layer_1" version="1.1" viewBox="0 0 409.7 500" x="0px" xml:space="preserve" y="0px">
<g id="change1_1"><path d="m361 174.5c2.5-10.1 3.7-20.5 3.7-30.9 0.1-79.2-71.7-143.6-159.9-143.6s-159.9 64.4-159.9 143.6c0 10.4 1.3 20.7 3.7 30.9-30.6 20.7-48.6 52.9-48.6 87.7 0 60.5 54.7 109.7 121.9 109.7h78.3v118.1c0 5.5 4.5 10 10 10s10-4.5 10-10v-118.2h67.6c67.2 0 121.8-49.2 121.8-109.7 0.1-34.7-18-66.9-48.6-87.6zm-73.2 177.3h-67.6v-132l58.6-54.3c4.1-3.8 4.3-10.1 0.5-14.1-3.8-4.1-10.1-4.3-14.1-0.5l-45 41.7v-73.7c0-5.5-4.5-10-10-10s-10 4.5-10 10v140.6l-45-41.7c-4.1-3.8-10.4-3.5-14.1 0.5-3.8 4.1-3.5 10.4 0.5 14.1l58.6 54.3v65.2h-78.3c-56.2-0.1-101.9-40.3-101.9-89.7 0-30 16.9-57.9 45.3-74.6 4-2.4 5.8-7.1 4.5-11.6-3.3-10.6-4.9-21.5-4.9-32.4 0-68.1 62.8-123.6 139.9-123.6 77.2 0 139.9 55.5 139.9 123.6 0 10.9-1.6 21.8-4.9 32.4-1.4 4.4 0.5 9.2 4.5 11.6 28.4 16.7 45.3 44.6 45.3 74.6 0.1 49.4-45.6 89.6-101.8 89.6z" fill="#f7f6f6"/></g>
</svg>