<?xml version="1.0" encoding="UTF-8" standalone="no"?><!-- Generator: Adobe Illustrator 23.0.4, SVG Export Plug-In . SVG Version: 6.00 Build 0)  --><svg xmlns="http://www.w3.org/2000/svg" xmlns:xlink="http://www.w3.org/1999/xlink" enable-background="new 0 0 330.1 35.4" fill="#000000" height="35.4" preserveAspectRatio="xMidYMid meet" version="1.1" viewBox="0.0 0.0 330.1 35.4" width="330.1" x="0px" xml:space="preserve" y="0px" zoomAndPan="magnify">
<g id="change1_1"><path d="m289.8 35.4h-2c-0.3 0-0.5 0-0.8-0.1-14.3-1-19.1-9.6-23-16.6-3.7-6.8-6.5-11.7-16.4-11.7-12.4 0-15.7 6.1-19.6 13-3.7 6.7-7.9 14.2-19.7 15.2-0.3 0.1-0.6 0.1-0.9 0.1h-1.9c-0.3 0-0.5 0-0.8-0.1-14.3-1-19.1-9.6-23-16.6-3.9-6.7-6.7-11.6-16.6-11.6-12.4 0-15.7 6.1-19.6 13-3.7 6.7-7.9 14.2-19.7 15.2-0.3 0.1-0.6 0.1-0.9 0.1h-2c-0.3 0-0.5 0-0.8-0.1-14.3-1-19.1-9.6-23-16.6-3.9-6.7-6.6-11.6-16.6-11.6-12.4 0-15.7 6.1-19.6 13-3.7 6.7-7.9 14.2-19.7 15.2-0.3 0.1-0.6 0.1-0.9 0.1h-2c-0.3 0-0.5 0-0.8-0.1-14.3-1-19.1-9.6-23-16.6-3.8-6.7-6.5-11.6-16.5-11.6v-7c14.1 0 18.6 8.2 22.6 15.4 3.8 6.8 7.1 12.7 18.6 13 9.2-0.3 11.9-5.1 15.6-11.7 4.1-7.5 9.2-16.7 25.7-16.7 14.1 0 18.6 8.2 22.6 15.4 3.8 6.8 7.1 12.7 18.6 13 9.2-0.3 11.9-5.1 15.6-11.7 4.1-7.5 9.3-16.7 25.8-16.7 14.1 0 18.6 8.2 22.6 15.4 3.8 6.8 7.1 12.7 18.6 13 9.2-0.3 11.9-5.1 15.6-11.7 4.1-7.5 9.2-16.7 25.7-16.7 14.1 0 18.6 8.2 22.6 15.4 3.8 6.8 7.1 12.7 18.6 13 9.2-0.3 11.9-5.1 15.6-11.7 4.1-7.5 9.2-16.7 25.7-16.7v7c-12.4 0-15.7 6.1-19.6 13-3.7 6.7-7.9 14.2-19.8 15.2-0.3 0.2-0.6 0.2-0.9 0.2z" fill="#f7f6f6"/></g>
</svg>